<?xml version="1.0" encoding="UTF-8"?>
<svg version="1.1" xmlns="http://www.w3.org/2000/svg" width="65" height="76">
<path d="M0 0 C6.06148006 4.20867948 9.64746464 9.12071182 11.125 16.375 C11.35493637 17.87184069 11.57126797 19.37118564 11.75 20.875 C7.37112203 23.55916798 3.48099373 23.10663208 -1.48828125 22.62109375 C-4.25 21.875 -4.25 21.875 -5.60546875 20.34765625 C-6.16435184 19.10656844 -6.70586004 17.85752228 -7.23046875 16.6015625 C-8.9630934 13.66738589 -11.43078978 13.09644489 -14.60546875 12.23828125 C-20.92043082 11.37079015 -27.64924541 11.64226041 -33.25 14.875 C-33.66870553 17.20571879 -33.66870553 17.20571879 -33.25 19.875 C-26.81013171 26.18536454 -17.71718691 25.9946289 -9.125 25.9375 C-8.25617187 25.90785156 -7.38734375 25.87820312 -6.4921875 25.84765625 C-4.25 25.875 -4.25 25.875 -1.25 26.875 C-1.25 27.535 -1.25 28.195 -1.25 28.875 C-0.71375 28.978125 -0.1775 29.08125 0.375 29.1875 C4.48107831 30.37610162 7.81321108 31.61495293 10.4140625 35.11328125 C13.12627717 40.72011099 12.25718136 47.33909321 11.0625 53.3125 C7.89541457 59.49585726 2.87149271 62.22003441 -3.25 64.875 C-4.0028125 65.23464844 -4.755625 65.59429687 -5.53125 65.96484375 C-15.36868091 69.25812163 -28.0732174 67.18015727 -37.25 62.875 C-42.98099387 59.00543294 -48.77978644 53.46223616 -51.25 46.875 C-51.27975716 45.208599 -51.28288833 43.54134214 -51.25 41.875 C-45.72032059 41.16466569 -40.75016964 40.57232824 -35.25 41.875 C-34.96125 43.009375 -34.6725 44.14375 -34.375 45.3125 C-34.00375 46.488125 -33.6325 47.66375 -33.25 48.875 C-26.50103839 52.2494808 -15.68291605 51.30848052 -8.25 50.875 C-7.26 50.545 -6.27 50.215 -5.25 49.875 C-4.92 47.565 -4.59 45.255 -4.25 42.875 C-4.971875 42.58625 -5.69375 42.2975 -6.4375 42 C-8.1602595 41.3108962 -9.87532928 40.6016277 -11.57543945 39.85839844 C-14.38150584 38.82664715 -16.8921088 38.38364513 -19.85546875 38.015625 C-20.92216797 37.86867187 -21.98886719 37.72171875 -23.08789062 37.5703125 C-25.29976736 37.27625542 -27.51335319 36.99474834 -29.72851562 36.7265625 C-37.16962239 35.67184707 -43.40417941 33.78800045 -49.25 28.875 C-52.30106902 23.92447924 -51.94329306 18.50078431 -51.25 12.875 C-49.07104849 6.93152066 -44.86076649 2.67540033 -39.25 -0.125 C-26.90815413 -5.16417402 -12.07168959 -6.7903254 0 0 Z " fill="#D98819" transform="translate(53.25,5.125)"/>
<path d="M0 0 C0.268125 0.639375 0.53625 1.27875 0.8125 1.9375 C1.88667752 4.33131686 1.88667752 4.33131686 5 5 C4 7 4 7 2 9 C2.66 9 3.32 9 4 9 C5.4783226 11.95664519 5.06032783 14.74229737 5 18 C4.360625 18.226875 3.72125 18.45375 3.0625 18.6875 C0.72567164 19.84016601 0.72567164 19.84016601 0.375 22.5625 C0.25125 23.366875 0.1275 24.17125 0 25 C-2.70879335 26.35439668 -5.00933268 26.06501451 -8 26 C-8 25.34 -8 24.68 -8 24 C-8.66 24 -9.32 24 -10 24 C-10 25.32 -10 26.64 -10 28 C-15.94 28 -21.88 28 -28 28 C-27.01 26.515 -27.01 26.515 -26 25 C-26.66 24.67 -27.32 24.34 -28 24 C-28.042721 22.33388095 -28.04063832 20.66617115 -28 19 C-26.29393674 17.29393674 -23.95952256 17.75102821 -21.625 17.625 C-11.65944795 17.11790236 -11.65944795 17.11790236 -3 13 C-3.04125 11.7625 -3.0825 10.525 -3.125 9.25 C-3.19482546 5.36770465 -2.36990324 3.15987098 0 0 Z " fill="#D9840F" transform="translate(58,41)"/>
<path d="M0 0 C4.29 0 8.58 0 13 0 C13.309375 1.134375 13.61875 2.26875 13.9375 3.4375 C14.62924531 6.78775099 14.62924531 6.78775099 16 8 C16.47274656 12.25471906 15.39014869 14.51436649 13 18 C12.01 17.67 11.02 17.34 10 17 C9.67 16.34 9.34 15.68 9 15 C8.37609375 14.85820313 7.7521875 14.71640625 7.109375 14.5703125 C3.85999662 13.69177686 2.79883077 11.68565829 0.97265625 8.98828125 C-0.50527496 5.9671287 -0.33524063 3.28535813 0 0 Z " fill="#D9830E" transform="translate(4,48)"/>
<path d="M0 0 C6.93 0 13.86 0 21 0 C21 0.66 21 1.32 21 2 C22.175625 2.185625 22.175625 2.185625 23.375 2.375 C26 3 26 3 28 5 C27.625 7.125 27.625 7.125 27 9 C26.74992187 8.37738281 26.49984375 7.75476563 26.2421875 7.11328125 C24.35654404 3.90531548 22.1678001 3.4984809 18.71484375 2.46875 C12.43273233 1.38406889 5.58699074 1.77520487 0 5 C-0.15149298 8.62885324 -0.15149298 8.62885324 1 12 C0.01 11.67 -0.98 11.34 -2 11 C-2.17700355 6.39790775 -2.10814567 4.21629134 0 0 Z " fill="#EBCB94" transform="translate(20,15)"/>
<path d="M0 0 C1.49609375 1.21875 1.49609375 1.21875 2.49609375 3.21875 C0.05859375 2.84375 0.05859375 2.84375 -2.50390625 2.21875 C-2.99890625 1.22875 -2.99890625 1.22875 -3.50390625 0.21875 C-10.52275185 -2.94183088 -17.56332469 -3.16571774 -25.12890625 -2.96875 C-26.63517578 -2.94844727 -26.63517578 -2.94844727 -28.171875 -2.92773438 C-30.61647489 -2.89281152 -33.05988359 -2.84377748 -35.50390625 -2.78125 C-25.47764817 -9.46542205 -9.52217105 -6.2842497 0 0 Z " fill="#ECCB94" transform="translate(55.50390625,6.78125)"/>
<path d="M0 0 C7.42857143 1 7.42857143 1 11 2 C11 2.99 11 3.98 11 5 C11.99 5.33 12.98 5.66 14 6 C16 8 16 8 17 11 C14.60236815 13.39763185 13.66726502 13.34280586 10.375 13.625 C9.55773438 13.69976562 8.74046875 13.77453125 7.8984375 13.8515625 C7.27195312 13.90054688 6.64546875 13.94953125 6 14 C6.99 13.34 7.98 12.68 9 12 C9.73606499 8.43230448 9.73606499 8.43230448 10 5 C9.278125 4.71125 8.55625 4.4225 7.8125 4.125 C5.20833333 3.08333333 2.60416667 2.04166667 0 1 C0 0.67 0 0.34 0 0 Z " fill="#D68A1E" transform="translate(39,43)"/>
<path d="M0 0 C2.31 0.33 4.62 0.66 7 1 C7 1.66 7 2.32 7 3 C7.53625 3.103125 8.0725 3.20625 8.625 3.3125 C12.72156672 4.49834826 16.05290986 5.74532685 18.671875 9.21484375 C20.23637122 12.49568435 20.30661438 14.69936381 20.1875 18.3125 C20.16042969 19.38113281 20.13335937 20.44976562 20.10546875 21.55078125 C20.07066406 22.35902344 20.03585938 23.16726562 20 24 C19.67 24 19.34 24 19 24 C18.97421875 23.08476563 18.9484375 22.16953125 18.921875 21.2265625 C18.86515625 20.03804687 18.8084375 18.84953125 18.75 17.625 C18.70359375 16.44164063 18.6571875 15.25828125 18.609375 14.0390625 C18.34254198 10.92810192 18.34254198 10.92810192 16.140625 9.6484375 C15.08101562 9.32746094 15.08101562 9.32746094 14 9 C13.01 8.67 12.02 8.34 11 8 C10.01 8.33 9.02 8.66 8 9 C8.33 7.35 8.66 5.7 9 4 C7.02 4 5.04 4 3 4 C3 3.01 3 2.02 3 1 C2.01 0.67 1.02 0.34 0 0 Z " fill="#DDA34F" transform="translate(45,31)"/>
<path d="M0 0 C4.875 2.75 4.875 2.75 6 5 C6.17704592 7.64117689 6.27741548 10.23196596 6.3125 12.875 C6.34150391 13.59558594 6.37050781 14.31617188 6.40039062 15.05859375 C6.44439789 18.73489334 6.32218329 20.59991939 3.98046875 23.5078125 C3.32691406 24.00023438 2.67335937 24.49265625 2 25 C1.34 23.68 0.68 22.36 0 21 C1.32 20.67 2.64 20.34 4 20 C4 17.03 4 14.06 4 11 C3.34 11 2.68 11 2 11 C3 8 3 8 4 7 C3.525625 6.5875 3.05125 6.175 2.5625 5.75 C0.83733482 3.817815 0.43415125 2.51807725 0 0 Z " fill="#DA9435" transform="translate(58,39)"/>
<path d="M0 0 C0.81017578 -0.01224609 1.62035156 -0.02449219 2.45507812 -0.03710938 C4.53389427 -0.04230209 6.61232241 0.06444927 8.6875 0.1875 C9.3475 0.8475 10.0075 1.5075 10.6875 2.1875 C9.89988281 2.17589844 9.11226562 2.16429687 8.30078125 2.15234375 C-5.59711735 1.27839887 -5.59711735 1.27839887 -18.3125 5.1875 C-20.5 4.8125 -20.5 4.8125 -22.3125 4.1875 C-15.11477208 0.14975019 -8.04910224 0.00655999 0 0 Z " fill="#D38A2A" transform="translate(33.3125,2.8125)"/>
<path d="M0 0 C0.66 0 1.32 0 2 0 C2 0.66 2 1.32 2 2 C3.32 2.33 4.64 2.66 6 3 C-2.00694109 7.98209668 -9.93166568 7.40056446 -19 7 C-19 6.67 -19 6.34 -19 6 C-13.555 5.505 -13.555 5.505 -8 5 C-8 4.67 -8 4.34 -8 4 C-5.36 4 -2.72 4 0 4 C0 2.68 0 1.36 0 0 Z " fill="#E6B56E" transform="translate(48,65)"/>
<path d="M0 0 C1.1052517 3.31575509 1.0180114 6.43591428 0.97265625 9.90234375 C1.02255023 13.72992502 1.27627393 17.55254786 3 21 C-0 20 -0 20 -1.171875 18.3125 C-2.20143189 15.43751094 -2.26525338 13.05067527 -2.25 10 C-2.25515625 8.96875 -2.2603125 7.9375 -2.265625 6.875 C-2.00499165 4.05402722 -1.45296344 2.39854282 0 0 Z " fill="#E3B875" transform="translate(4,14)"/>
<path d="M0 0 C0.99 0 1.98 0 3 0 C3.33 1.32 3.66 2.64 4 4 C6.31 4 8.62 4 11 4 C11 4.66 11 5.32 11 6 C12.98 6.66 14.96 7.32 17 8 C13.66270369 9.66864815 10.37738349 8.10202532 7 7 C3.28823424 5.22480768 1.47169499 3.87992315 0 0 Z " fill="#D1882A" transform="translate(5,32)"/>
<path d="M0 0 C1.8125 0.1875 1.8125 0.1875 4 1 C6.88921847 4.83377066 7.34388097 7.56894386 7.1875 12.3125 C7.16042969 13.38113281 7.13335937 14.44976562 7.10546875 15.55078125 C7.07066406 16.35902344 7.03585938 17.16726562 7 18 C6.67 18 6.34 18 6 18 C5.96132813 16.62714844 5.96132813 16.62714844 5.921875 15.2265625 C5.86515625 14.03804687 5.8084375 12.84953125 5.75 11.625 C5.70359375 10.44164062 5.6571875 9.25828125 5.609375 8.0390625 C5.40828125 7.03617188 5.2071875 6.03328125 5 5 C3.07255538 3.72354306 3.07255538 3.72354306 1 3 C0.67 2.01 0.34 1.02 0 0 Z " fill="#E7BA77" transform="translate(58,37)"/>
<path d="M0 0 C7.42857143 1 7.42857143 1 11 2 C11.33 3.65 11.66 5.3 12 7 C11.01 7.495 11.01 7.495 10 8 C10 7.01 10 6.02 10 5 C9.278125 4.71125 8.55625 4.4225 7.8125 4.125 C5.20833333 3.08333333 2.60416667 2.04166667 0 1 C0 0.67 0 0.34 0 0 Z " fill="#D99E4F" transform="translate(39,43)"/>
<path d="M0 0 C2 1.625 2 1.625 4 4 C4.25 7.25 4.25 7.25 4 10 C2 8.375 2 8.375 0 6 C-0.25 2.75 -0.25 2.75 0 0 Z " fill="#D79B45" transform="translate(58,10)"/>
<path d="M0 0 C0.66 0 1.32 0 2 0 C1.33333333 3.33333333 0.66666667 6.66666667 0 10 C-0.33 10 -0.66 10 -1 10 C-1.02689216 8.52093108 -1.04634621 7.04172517 -1.0625 5.5625 C-1.07410156 4.73878906 -1.08570312 3.91507813 -1.09765625 3.06640625 C-1 1 -1 1 0 0 Z " fill="#D88D29" transform="translate(18,14)"/>
<path d="M0 0 C6.52307692 0.49230769 6.52307692 0.49230769 8.9375 3.0625 C9.288125 3.701875 9.63875 4.34125 10 5 C7.5625 4.625 7.5625 4.625 5 4 C4.67 3.34 4.34 2.68 4 2 C1.98330173 0.86649466 1.98330173 0.86649466 0 0 Z " fill="#E0B779" transform="translate(48,5)"/>
<path d="M0 0 C1.4800841 0.11362262 2.95910074 0.24122908 4.4375 0.375 C5.26121094 0.44460937 6.08492187 0.51421875 6.93359375 0.5859375 C7.95646484 0.79089844 7.95646484 0.79089844 9 1 C9.33 1.66 9.66 2.32 10 3 C4.58461538 3.36923077 4.58461538 3.36923077 1.625 1.5 C1.08875 1.005 0.5525 0.51 0 0 Z " fill="#E7C38A" transform="translate(40,2)"/>
</svg>
